Dutch spoken.

Director: William Lau
Writer: Elise Allen
Stars: Diana Kaarina, Adrian Petriw and Britt Irvin 

General:

Complete name                    : Barbie A Fairy Secret\Barbie Het Feeënmysterie.avi
Format                           : AVI
Format/Info                      : Audio Video Interleave
File size                        : 1.27 GiB
Duration                         : 1h 11mn
Overall bit rate                 : 2 534 Kbps

Video:

Format                           : MPEG-4 Visual
Format profile                   : Simple@L3
Format settings, BVOP            : No
Format settings, QPel            : No
Format settings, GMC             : No warppoints
Format settings, Matrix          : Default (H.263)
Codec ID                         : XVID
Codec ID/Hint                    : XviD
Duration                         : 1h 11mn
Bit rate                         : 2 139 Kbps
Width                            : 704 pixels
Height                           : 396 pixels
Display aspect ratio             : 16:9
Frame rate                       : 25.000 fps
Color space                      : YUV
Chroma subsampling               : 4:2:0
Bit depth                        : 8 bits
Scan type                        : Progressive
Bits/(Pixel*Frame)               : 0.307
Stream size                      : 1.07 GiB (84%)
Writing library                  : XviD 1.1.2 (UTC 2006-11-01)

Audio:

Format                           : AC-3
Format/Info                      : Audio Coding 3
Mode extension                   : CM (complete main)
Codec ID                         : 2000
Duration                         : 1h 11mn
Bit rate mode                    : Constant
Bit rate                         : 384 Kbps
Channel(s)                       : 6 channels
Channel positions                : Front: L C R, Side: L R, LFE
Sampling rate                    : 48.0 KHz
Bit depth                        : 16 bits
Stream size                      : 197 MiB (15%)
Alignment                        : Aligned on interleaves
Interleave, duration             : 32 ms (0.80 video frame)
